<svg xmlns="http://www.w3.org/2000/svg" viewBox="0 0 1200 800" width="1200" height="800">
  <!-- Background -->
  <rect x="0" y="0" width="1200" height="800" fill="#000" />
  
  <!-- Stylized city skyline silhouette -->
  <path d="M0,600 L50,600 L70,550 L100,580 L130,540 L160,590 L200,520 L230,570 L270,550 L300,580 L350,500 L380,580 L420,560 L450,590 L500,530 L550,580 L600,540 L650,590 L700,520 L750,570 L800,550 L850,590 L900,530 L950,580 L1000,550 L1050,590 L1100,540 L1150,580 L1200,550 L1200,800 L0,800 Z" fill="#111" />
  
  <!-- Logo container -->
  <rect x="300" y="150" width="600" height="200" rx="30" fill="#222" />
  
  <!-- Main title -->
  <text x="600" y="270" font-family="Arial Black, sans-serif" font-size="100" font-weight="bold" text-anchor="middle" fill="#fff">
    MiniGTA3
  </text>
  
  <!-- Red accent bars -->
  <rect x="320" y="170" width="15" height="160" fill="#ff0000" />
  <rect x="865" y="170" width="15" height="160" fill="#ff0000" />
  
  <!-- Tagline -->
  <text x="600" y="350" font-family="Arial, sans-serif" font-size="30" text-anchor="middle" fill="#aaa">
    Liberty City Awaits
  </text>
  
  <!-- Copyright notice -->
  <text x="600" y="700" font-family="Arial, sans-serif" font-size="20" text-anchor="middle" fill="#666">
    © 2023 MiniGTA3 Contributors
  </text>
  
  <!-- Press any key prompt -->
  <text x="600" y="750" font-family="Arial, sans-serif" font-size="24" text-anchor="middle" fill="#fff">
    Press any key to start
  </text>
</svg>